<?xml version="1.0" standalone="no"?><!DOCTYPE svg PUBLIC "-//W3C//DTD SVG 1.1//EN" "http://www.w3.org/Graphics/SVG/1.1/DTD/svg11.dtd"><svg t="1597585472497" class="icon" viewBox="0 0 1024 1024" version="1.1" xmlns="http://www.w3.org/2000/svg" p-id="6876" xmlns:xlink="http://www.w3.org/1999/xlink" width="200" height="200"><defs><style type="text/css"></style></defs><path d="M429.054 378.914c114.545 0 233.679-25.34 305.229-73.655l0 87.96 66.29 0L800.573 200.622c0-115.782-191.365-178.295-371.407-178.295-180.05 0-371.514 62.512-371.514 178.295l0 525.631c0 115.795 191.352 178.305 371.402 178.305l0-66.565c-189.117 0-305.232-65.105-305.232-111.74l0-158.01c71.55 48.2 190.575 73.66 305.232 73.66l0-66.675c-189.117 0-305.232-65.102-305.232-111.727L123.822 305.369C195.372 353.574 314.507 378.914 429.054 378.914L429.054 378.914zM429.054 88.892c189.115 0 305.229 65.105 305.229 111.732s-116.11 111.727-305.229 111.727-305.234-65.1-305.234-111.727C123.822 153.997 240.049 88.892 429.054 88.892L429.054 88.892zM725.998 415.406c-164.485 0-250.474 63.635-250.474 126.482l0 337.779c0 62.84 86.105 126.48 250.474 126.48 163.255 0 249.124-62.735 250.474-125.13l0.115 0L976.587 541.889C976.473 479.039 890.483 415.406 725.998 415.406L725.998 415.406zM725.998 481.971c121.6 0 184.295 42.012 184.295 59.912 0 17.91-62.695 59.92-184.295 59.92-121.605 0-184.31-42.01-184.31-59.92C541.689 523.984 604.393 481.971 725.998 481.971L725.998 481.971zM725.998 939.588c-121.605 0-184.31-42.015-184.31-59.92l0-80.65c41.995 22.985 103.69 38.3 184.31 38.3 80.615 0 142.2-15.315 184.295-38.3l0 80.65C910.293 897.573 847.598 939.588 725.998 939.588L725.998 939.588zM725.998 770.638c-121.605 0-184.31-42.015-184.31-59.92l0-80.645c41.995 22.98 103.69 38.295 184.31 38.295 80.615 0 142.2-15.315 184.295-38.295l0 80.645C910.293 728.623 847.598 770.638 725.998 770.638L725.998 770.638z" p-id="6877" fill="#d81e06"></path></svg>