<?xml version="1.0" standalone="no"?><!DOCTYPE svg PUBLIC "-//W3C//DTD SVG 1.1//EN" "http://www.w3.org/Graphics/SVG/1.1/DTD/svg11.dtd"><svg t="1597586571167" class="icon" viewBox="0 0 1024 1024" version="1.1" xmlns="http://www.w3.org/2000/svg" p-id="10822" xmlns:xlink="http://www.w3.org/1999/xlink" width="200" height="200"><defs><style type="text/css"></style></defs><path d="M844.877 864.522l-0.229-2.285-47.323-468.252h-81.769c-2.352-100.944-85.136-182.348-186.635-182.348-101.5 0-184.284 81.403-186.636 182.348h-81.527l-46.985 464.927a38.255 38.255 0 0 0-0.947 8.365c0 0.225 0.03 0.442 0.035 0.667 0.356 20.81 17.31 37.576 38.208 37.576h555.704c21.125 0 38.244-17.123 38.244-38.243 0-0.93-0.075-1.842-0.14-2.755zM528.921 251.371c79.591 0 144.562 63.582 146.901 142.614H382.019c2.339-79.032 67.31-142.614 146.902-142.614z m239.682 614.417H289.24c-36.169 0-36.057-1.649-32.556-36.297 3.499-34.646 39.997-395.772 39.997-395.772h464.721s36.322 359.403 39.992 395.734c3.67 36.335 3.795 36.335-32.791 36.335zM664.522 526.914v-2.972l-0.119 2.972c-15.809 0.148-31.881 0.164-47.424 0.187-32.126 0.039-65.348 0.081-97.953 1.25-35.625 1.28-66.101 17.872-90.585 49.325-17.612 22.622-26.087 50.024-25.913 83.771 0.141 25.915 0.11 52.254 0.079 77.731-0.016 11.059-0.027 22.117-0.027 33.176v17.997h0.004c1.327 0.14 2.378 0.248 3.353 0.248 10.678 0.009 21.356 0.031 32.035 0.051 12.801 0.027 25.602 0.051 38.402 0.051 22.039 0 40.025-0.078 56.593-0.245 13.714-0.144 25.49-1.304 35.998-3.554 53.645-11.494 94.228-58.444 96.494-111.639 1.392-32.787 1.389-66.22 1.384-98.551-0.003-15.338-0.003-31.2 0.145-46.803 0.019-2.115-0.318-2.564-0.388-2.635-0.017-0.01-0.381-0.36-2.078-0.36zM638.23 663.809c-0.124 56.232-42.698 98.718-99.031 98.823-12.583 0.023-25.168 0.03-37.759 0.03l-29.245-0.012-29.249-0.007h-11.078l-0.154-2.818c-0.056-0.997-0.122-1.928-0.184-2.824-0.123-1.827-0.244-3.559-0.244-5.305l-0.023-19.711c-0.031-25.85-0.063-52.577 0.023-78.865 0.174-54.914 43.327-98.027 98.231-98.151 12.293-0.023 24.578-0.035 36.871-0.035l30.082 0.012 30.085 0.012H638.245v11.814l0.012 29.848c0.013 22.397 0.028 44.793-0.027 67.189z m-42.519-76.959c-1.451-0.327-2.94-0.669-4.35-1.103-0.051 0.019-0.101 0.038-0.151 0.054-0.35 0.116-0.702 0.225-1.036 0.295-24.104 5.238-47.036 17.236-72.165 37.771-2.518 2.057-4.975 4.206-7.822 6.697-1.451 1.265-2.987 2.607-4.676 4.066l-4.928 4.249v-6.507l0.004-4.113c0.004-2.511 0.008-4.509-0.012-6.511-0.008-0.605-0.004-1.219 0-1.84 0.008-1.646 0.016-3.201-0.201-4.648-0.955-6.418-4.75-10.092-10.411-10.092l-0.399 0.003c-5.913 0.179-9.853 4.35-10.039 10.636-0.492 16.592-0.496 29.339-0.015 41.324 0.264 6.741-1.753 12.048-4.87 17.946l-0.509 0.963c-6.259 11.843-12.734 24.092-17.166 36.715-1.319 3.752-0.888 7.582 1.181 10.5 1.873 2.639 4.787 4.156 7.997 4.156 1.299 0 2.622-0.249 3.934-0.742 4.145-1.544 7.862-6.798 11.021-11.603 3.706-5.613 6.825-11.484 9.844-17.157a394.349 394.349 0 0 1 3.532-6.543l0.849-1.536h1.754c7.125 0 14.14 0.023 21.077 0.039 6.774 0.023 13.473 0.038 20.128 0.038 12.68 0 22.932-0.069 32.256-0.229 5.785-0.094 10.02-5.836 9.944-10.907-0.073-5.572-4.396-9.938-10.511-10.616-2.558-0.279-5.277-0.287-7.908-0.291h-0.21c-6.919-0.012-13.837-0.02-20.956-0.02l-11.334 0.005-12.367 0.003h-5.89l3.487-4.749c0.754-1.018 1.354-1.863 1.871-2.585 0.942-1.319 1.621-2.273 2.417-3.213 16.347-19.191 36.467-34.092 59.813-44.288a105.736 105.736 0 0 0 20.563-11.886c3.041-2.243 6.774-7.298 3.859-11.318-1.063-1.474-4.54-2.266-7.605-2.963z" fill="#d81e06" p-id="10823"></path></svg>