<?xml version="1.0" standalone="no"?><!DOCTYPE svg PUBLIC "-//W3C//DTD SVG 1.1//EN" "http://www.w3.org/Graphics/SVG/1.1/DTD/svg11.dtd"><svg t="1597585413852" class="icon" viewBox="0 0 1024 1024" version="1.1" xmlns="http://www.w3.org/2000/svg" p-id="5855" xmlns:xlink="http://www.w3.org/1999/xlink" width="200" height="200"><defs><style type="text/css"></style></defs><path d="M947.2 128H76.8A76.8 76.8 0 0 0 0 204.766V819.2A76.8 76.8 0 0 0 76.8 896h870.4a76.8 76.8 0 0 0 76.8-76.8V204.8a76.8 76.8 0 0 0-76.8-76.8z m36.267 698.317c0 14.455-11.742 26.18-26.198 26.18H66.731a26.197 26.197 0 0 1-26.198-26.18V197.683c0-14.49 11.725-26.197 26.198-26.197h890.538c14.473 0 26.198 11.708 26.198 26.197v628.634z" p-id="5856" fill="#d81e06"></path><path d="M993.126 156.45a25.088 25.088 0 0 0-35.481-0.017l-0.017 0.017S656.469 448.495 545.502 559.48c-22.494 22.493-43.605 22.22-65.639 0.187C369.46 449.195 71.031 161.024 71.031 161.024a25.105 25.105 0 0 0-35.481 1.11c-9.045 9.642-2.27 18.38 6.758 28.023 0 0 296.431 286.242 407.655 397.482 39.987 40.005 85.64 38.435 123.648 0.393 110.967-110.933 412.16-403.046 412.16-403.046 9.813-9.797 17.169-18.774 7.355-28.536z" p-id="5857" fill="#d81e06"></path><path d="M402.244 494.08a25.105 25.105 0 0 0-35.498 0L32.716 827.392a25.07 25.07 0 0 0 1.178 35.447c9.66 9.029 13.893 9.012 23.535-0.017l334.046-333.329c9.78-9.728 20.6-25.566 10.855-35.345a0.375 0.375 0 0 1-0.086-0.068zM991.3 827.392L657.271 494.08c-9.796-9.796-20.07-15.428-29.866-5.632a25.02 25.02 0 0 0-0.068 35.345l0.068 0.068 334.029 333.33a25.07 25.07 0 0 0 35.464 0.802c10.018-9.575 4.728-19.815-4.83-29.833-0.256-0.256-0.495-0.53-0.768-0.768z" p-id="5858" fill="#d81e06"></path></svg>