<?xml version="1.0" standalone="no"?><!DOCTYPE svg PUBLIC "-//W3C//DTD SVG 1.1//EN" "http://www.w3.org/Graphics/SVG/1.1/DTD/svg11.dtd"><svg t="1596705068105" class="icon" viewBox="0 0 1024 1024" version="1.1" xmlns="http://www.w3.org/2000/svg" p-id="7370" xmlns:xlink="http://www.w3.org/1999/xlink" width="200" height="200"><defs><style type="text/css"></style></defs><path d="M888.839671 960.535573c-16.458857-144.17361-114.487497-263.348873-246.994394-310.36877 81.742722-44.505633 137.216151-131.155109 137.216151-230.768851 0-145.028071-117.565603-262.597767-262.59265-262.597767S253.877151 274.369881 253.877151 419.397952c0 99.644441 55.504128 186.320523 137.282666 230.809783C261.042341 696.434569 164.266227 812.284087 145.307434 953.009156c-1.438769 3.228531-2.309602 6.753821-2.309602 10.513448l0.23536 2.420119c0 9.033747 4.614088 16.98586 11.610432 21.644973 2.858094 2.635013 6.65763 4.263094 10.827603 4.263094l1.817392 0c0.580215 0.038886 1.157359 0.088004 1.746784 0.088004 0.589424 0 1.166569-0.049119 1.74576-0.088004L862.866113 991.850789c0.579191 0.039909 1.156336 0.088004 1.744737 0.088004 13.934361 0 25.235754-11.296277 25.235754-25.230638l-0.23536-2.341325C889.611244 963.006857 889.044332 961.838242 888.839671 960.535573zM297.892621 419.469584c0-120.677477 97.831142-218.508619 218.508619-218.508619 120.6785 0 218.508619 97.831142 218.508619 218.508619 0 120.6785-97.830119 218.508619-218.508619 218.508619C395.723763 637.978203 297.892621 540.148084 297.892621 419.469584zM484.364593 679.830403c10.540054 1.288343 21.210068 2.153036 32.104185 2.153036 10.894118 0 21.570271-0.870834 32.120558-2.159176 143.734612 14.086833 259.794931 121.783671 286.87059 261.294075L197.698664 941.118338C224.780463 801.647843 340.66989 693.932586 484.364593 679.830403z" p-id="7371" fill="#d81e06"></path><path d="M889.044332 325.508585l-16.000416 0C864.688621 137.175219 706.138582 32.05916 512.406253 32.05916c-193.731306 0-352.287485 105.116059-360.63664 293.449425l-16.812921 0c-16.052604 0-29.064966 13.011338-29.064966 29.064966L105.891725 512.096191c0 16.052604 13.011338 29.063943 29.064966 29.063943l28.531823 0c16.051581 0 29.062919-13.011338 29.062919-29.063943l0-23.437805c0.474814-1.595334 0.776689-3.338025 0.845251-5.231141 1.497097-40.531112 0.60989-142.199653 0.60989-142.199653 0-174.806281 142.831033-266.74318 318.398654-266.74318 175.562505 0 318.39456 91.936899 318.39456 266.74318 0 0 0.802272 104.297414-0.574075 140.418077-0.193405 4.958942 0.37453 8.93858 1.219781 12.07706L831.445496 512.096191c0 16.052604 13.011338 29.063943 29.064966 29.063943l28.531823 0c16.051581 0 29.062919-13.011338 29.062919-29.063943L918.105205 354.573551C918.107251 338.519923 905.095913 325.508585 889.044332 325.508585z" p-id="7372" fill="#d81e06"></path></svg>